PathFileType	4	(X/Y/Z)	c:/Users/goper/Files/vsCode/490R/osim_files/C07/C07_Slow_03.trc
DataRate	CameraRate	NumFrames	NumMarkers	Units                	OrigDataRate	OrigDataStartFrame	OrigNumFrames
250.00	250.00	9	36	mm	250.0	1099	2929
                Frame#	Time	LPSIS			LASIS			LTH1			LTH2			LTH3			LTH4			LLFE			LMFE			LSH1			LSH2			LSH3			LSH4			LLMAL			LMMAL			LCAL			LMTP5			LTOE			LMTP1			RPSIS			RASIS			RTH1			RTH2			RTH3			RTH4			RLFE			RMFE			RSH1			RSH2			RSH3			RSH4			RLMAL			RMMAL			RCAL			RMTP1			RTOE			RMTP5		
		X1	Y1	Z1	X2	Y2	Z2	X3	Y3	Z3	X4	Y4	Z4	X5	Y5	Z5	X6	Y6	Z6	X7	Y7	Z7	X8	Y8	Z8	X9	Y9	Z9	X10	Y10	Z10	X11	Y11	Z11	X12	Y12	Z12	X13	Y13	Z13	X14	Y14	Z14	X15	Y15	Z15	X16	Y16	Z16	X17	Y17	Z17	X18	Y18	Z18	X19	Y19	Z19	X20	Y20	Z20	X21	Y21	Z21	X22	Y22	Z22	X23	Y23	Z23	X24	Y24	Z24	X25	Y25	Z25	X26	Y26	Z26	X27	Y27	Z27	X28	Y28	Z28	X29	Y29	Z29	X30	Y30	Z30	X31	Y31	Z31	X32	Y32	Z32	X33	Y33	Z33	X34	Y34	Z34	X35	Y35	Z35	X36	Y36	Z36

1099	4.39200	1083.09766	1000.34753	364.51340	918.22961	975.77301	456.30084	0.00000	0.00000	0.00000	0.00000	0.00000	0.00000	1044.39917	643.00208	480.16101	0.00000	0.00000	0.00000	1097.46460	526.88861	453.97357	1093.28210	513.29071	333.77472	1212.42712	364.43143	451.24072	1224.84253	321.82053	444.69263	0.00000	0.00000	0.00000	0.00000	0.00000	0.00000	0.00000	0.00000	0.00000	1254.21924	165.96233	324.41595	1361.55505	108.87270	337.78381	1195.70947	47.36934	426.07983	1137.44446	53.79549	377.19748	1163.74170	47.00351	321.48383	1076.23767	1002.68579	266.16031	902.79260	928.36993	289.00458	928.56537	820.26196	141.70006	0.00000	0.00000	0.00000	0.00000	0.00000	0.00000	840.34381	762.93286	175.89287	850.30084	497.11301	184.38208	849.17029	504.94452	297.02795	858.81042	306.24960	178.71681	817.39240	270.08203	173.43742	801.76532	327.04507	173.69144	789.08960	284.60245	177.38290	773.58752	96.95322	220.15054	741.36749	124.17316	292.19321	798.94696	42.29370	273.99826	596.75519	93.03713	289.44745	580.97345	107.03667	238.56183	619.18463	66.88391	185.30811
1100	4.39600	1077.20667	999.76654	364.82031	913.73962	975.67712	456.05972	0.00000	0.00000	0.00000	0.00000	0.00000	0.00000	1040.39417	642.49908	479.98785	0.00000	0.00000	0.00000	1092.71301	526.75885	453.80475	1088.53296	513.01166	333.69992	1208.64392	365.09253	451.53302	1221.40881	322.42245	444.85995	0.00000	0.00000	0.00000	0.00000	0.00000	0.00000	0.00000	0.00000	0.00000	1252.60364	167.13631	324.63763	1360.46960	109.06940	339.98572	1196.31421	46.97398	426.54898	1137.32837	53.78917	377.23279	1163.76990	47.07117	321.49442	1071.55896	1002.51001	265.51038	898.25378	929.53082	286.86411	924.10809	820.62018	141.24348	900.97894	744.64911	139.59146	0.00000	0.00000	0.00000	835.02191	762.78979	176.20119	846.79401	496.65134	184.74371	846.11255	504.62561	297.06741	855.84399	305.67502	179.33380	814.78577	269.70905	174.19633	798.69128	326.29474	174.61516	786.27753	283.83109	178.42244	771.56714	96.56225	220.98444	738.97571	123.35326	292.98441	797.75574	42.55088	274.44077	595.10254	89.93131	290.45627	578.68774	104.44026	239.45499	617.94421	65.24385	186.30838
1101	4.40000	1072.42505	999.56897	364.39124	909.65485	975.15363	455.96164	0.00000	0.00000	0.00000	0.00000	0.00000	0.00000	1034.96118	642.57330	479.54324	0.00000	0.00000	0.00000	1088.14404	526.43835	453.72354	1083.59216	512.67444	333.62408	1204.96436	365.86450	451.69296	1217.94055	323.01483	445.08002	0.00000	0.00000	0.00000	0.00000	0.00000	0.00000	0.00000	0.00000	0.00000	1250.94922	168.08087	324.95642	1359.96265	110.77652	342.86102	1195.86060	47.18190	426.61386	1137.26953	53.77369	377.28717	1163.74170	47.09793	321.53931	1066.84705	1002.47601	264.89630	893.71265	930.72180	284.69290	919.12604	820.63263	141.32910	896.39563	744.74786	139.74451	0.00000	0.00000	0.00000	829.82318	762.44135	176.04070	843.30139	495.99075	185.26135	843.18054	504.04410	297.23584	853.05481	305.22653	179.82886	811.80914	268.99030	175.03690	795.92914	325.78442	175.22246	783.44885	283.33499	179.11652	769.42041	96.24168	221.60892	736.68634	122.54726	293.73923	796.74915	43.28250	275.13791	593.43805	87.10262	291.33463	576.36432	102.01696	240.34311	616.72473	63.65307	187.41196
1102	4.40400	1068.77222	999.76556	363.20416	904.28888	975.71185	455.85352	0.00000	0.00000	0.00000	0.00000	0.00000	0.00000	1030.26538	642.36835	479.36368	0.00000	0.00000	0.00000	1082.84619	526.34216	453.45871	1078.66125	512.44617	333.51953	0.00000	0.00000	0.00000	1216.81592	324.21463	444.29413	0.00000	0.00000	0.00000	0.00000	0.00000	0.00000	1285.45850	156.42867	396.46954	1249.11340	169.32961	325.27237	1358.17017	112.88345	341.62891	1194.58594	47.86493	426.39014	1137.11755	53.78474	377.31128	1163.69556	47.13942	321.53528	1062.19678	1002.56744	264.13702	889.16986	931.94092	282.49295	913.89252	820.55182	141.70212	891.63019	744.72333	140.04471	0.00000	0.00000	0.00000	824.54938	762.19019	175.97562	840.19891	495.54416	185.37663	840.24084	503.57687	297.47519	849.82861	304.60544	180.55785	808.79352	268.38797	175.72479	792.72693	325.15143	175.87595	780.40918	282.76511	179.79538	767.33282	95.77007	222.15970	734.62982	121.49960	294.28040	795.62433	43.72910	275.45978	592.13348	84.28972	292.18954	574.18988	99.58191	241.31908	615.37128	61.98146	188.62743
1103	4.40800	1062.89819	999.41486	363.36935	899.82935	975.15930	455.20810	0.00000	0.00000	0.00000	0.00000	0.00000	0.00000	1025.24805	642.08020	479.01474	0.00000	0.00000	0.00000	1077.84888	526.13922	453.24158	1073.46594	512.12738	333.51834	1176.98828	357.03885	459.74445	1212.93164	324.73434	444.65384	0.00000	0.00000	0.00000	0.00000	0.00000	0.00000	0.00000	0.00000	0.00000	1247.21399	170.51073	325.47183	1356.52576	115.36125	340.85223	1194.42700	48.11716	426.50937	1136.97766	53.82478	377.32712	1163.60144	47.16821	321.59348	1057.43872	1002.60266	263.44275	884.62616	933.18671	280.26636	908.62775	820.57422	141.97314	886.61670	744.60797	140.52734	0.00000	0.00000	0.00000	819.29303	761.97186	176.08458	836.91248	495.05096	185.56311	837.75946	502.91055	297.67337	846.89978	304.35315	180.94389	805.80865	267.96799	176.30150	789.64880	324.67978	176.28645	777.31671	282.17767	180.31543	765.31146	95.40308	222.52913	732.78296	120.56561	294.65198	794.75854	44.33354	275.61609	590.90649	81.67425	293.26266	572.22601	97.15365	242.42743	614.20599	60.25173	189.69478
1104	4.41200	1058.18066	999.44324	362.76672	895.25183	975.30737	454.91095	0.00000	0.00000	0.00000	0.00000	0.00000	0.00000	1020.50458	642.04187	478.86649	0.00000	0.00000	0.00000	1072.61658	525.85089	453.13684	1068.10425	511.79346	333.58356	1193.37012	368.57104	451.81326	1207.14929	325.06772	445.51999	0.00000	0.00000	0.00000	0.00000	0.00000	0.00000	0.00000	0.00000	0.00000	1245.19666	171.85684	325.79675	1356.00342	118.29183	343.42648	1193.84900	48.50308	426.76285	1136.88770	53.86725	377.38773	1163.46423	47.24969	321.64154	1052.68286	1002.69733	262.73718	880.08228	934.45715	278.01517	903.33246	820.50330	142.32281	881.77240	744.55640	140.89525	0.00000	0.00000	0.00000	814.19800	761.50854	175.93990	833.57306	494.51459	185.61111	835.43469	502.34494	297.93353	843.71716	303.96796	181.29187	802.47418	267.26385	176.72545	786.61993	324.33774	176.53848	774.30591	281.72769	180.66661	763.44684	95.06601	222.82564	731.21167	119.74714	295.19202	793.90350	45.00856	275.93649	589.87305	78.98151	294.23856	570.45831	94.51052	243.64247	612.92139	58.48576	190.83360
1105	4.41600	1054.39771	999.70679	361.50671	890.55408	975.27722	454.71646	0.00000	0.00000	0.00000	0.00000	0.00000	0.00000	1015.37836	641.85083	478.64597	0.00000	0.00000	0.00000	1067.36597	525.85913	453.04721	1062.62598	511.45081	333.66730	1189.41394	369.58408	451.75195	1203.33765	325.84021	445.72491	0.00000	0.00000	0.00000	0.00000	0.00000	0.00000	0.00000	0.00000	0.00000	1242.96765	172.92287	326.09821	1353.38147	120.12673	341.11560	1194.19727	48.30553	426.77591	1136.75940	53.94054	377.45038	1163.32263	47.26630	321.68768	1048.04468	1002.96600	261.91476	875.53882	935.75049	275.74142	898.04285	820.50275	142.69292	876.82379	744.39313	141.33238	0.00000	0.00000	0.00000	808.96014	761.19940	176.08276	830.22168	493.93069	185.59494	833.13342	501.77194	298.10840	840.59851	303.64719	181.44801	799.52045	266.83749	176.84354	783.32623	323.75235	177.04056	771.29291	281.31790	180.92517	761.75720	94.71120	223.06146	729.67340	118.89238	295.56775	793.24652	45.50539	276.00528	588.85553	76.36431	295.42429	569.04309	91.77680	244.94409	612.19696	56.67526	192.16971
1106	4.42000	1049.49402	999.75293	361.07138	885.86707	975.35034	454.44946	0.00000	0.00000	0.00000	0.00000	0.00000	0.00000	1010.13959	641.72565	478.42630	0.00000	0.00000	0.00000	1061.81885	525.62323	453.04813	1057.04858	511.08490	333.77637	0.00000	0.00000	0.00000	1199.41553	326.61691	445.90701	1126.75513	349.66153	447.62994	0.00000	0.00000	0.00000	0.00000	0.00000	0.00000	1240.52283	174.35188	326.30319	1351.01953	123.04000	341.17859	1193.78760	48.57621	426.85297	1136.45349	54.11741	377.41364	1163.18494	47.30625	321.68460	1043.34192	1003.22864	261.15125	870.99664	937.06519	273.44720	892.77576	820.53796	142.90968	871.88226	744.33960	141.57071	0.00000	0.00000	0.00000	803.96875	760.89606	176.17575	826.84369	493.55634	185.46838	830.59760	501.17136	298.25592	837.79071	303.57272	181.16655	796.64319	266.51733	176.87961	780.38733	323.47739	177.18108	768.33234	280.66446	181.32378	760.32562	94.45512	223.27536	728.20441	118.20222	295.88354	792.61731	45.84687	276.05969	587.82837	73.48196	296.46509	567.27661	89.08183	245.89325	610.70282	54.73196	192.95746
1107	4.42400	1043.54211	999.48346	361.21512	881.11847	975.35754	454.19321	0.00000	0.00000	0.00000	0.00000	0.00000	0.00000	1004.69495	641.57043	478.28775	0.00000	0.00000	0.00000	1055.94641	525.31781	453.13589	1051.29871	510.67154	333.98270	1160.70874	361.17502	461.16492	1195.36548	327.39410	446.15338	1122.64197	350.09607	447.84409	0.00000	0.00000	0.00000	1275.60535	165.44698	397.71606	1238.10132	175.79445	326.59470	1349.96619	126.57637	342.72198	1192.59253	49.31721	426.79959	1136.30505	54.15445	377.46826	1162.95886	47.32921	321.70731	1038.56531	1003.46204	260.46945	866.45630	938.39917	271.13455	887.58337	820.68750	143.07994	866.98566	744.31964	141.80888	0.00000	0.00000	0.00000	799.09052	760.60834	176.25185	823.39545	493.29086	185.36053	828.00531	500.68198	298.25500	834.68463	303.28351	180.98920	793.82727	266.11172	176.87759	777.30310	323.01215	177.43434	765.69995	280.48724	181.24878	758.95068	94.13319	223.45778	726.70685	117.59078	296.02298	791.95679	46.05966	276.17270	586.83478	70.77362	297.57236	565.81915	86.21294	247.12413	609.69391	52.83348	193.94356
